<?xml version="1.0" encoding="UTF-8"?>
<svg width="70px" height="70px" viewBox="0 0 70 70" version="1.1" xmlns="http://www.w3.org/2000/svg" xmlns:xlink="http://www.w3.org/1999/xlink">
    <!-- Generator: Sketch 43.2 (39069) - http://www.bohemiancoding.com/sketch -->
    <title>-icon-table</title>
    <desc>Created with Sketch.</desc>
    <defs>
        <path d="M5,40 L35,40 L35,53 L6.99161703,53 C5.89167732,53 5,52.1064574 5,50.9972399 L5,40 Z" id="path-1"></path>
        <path d="M34,40 L65,40 L65,50.9972399 C65,52.1033337 64.1056623,53 63.0017862,53 L34,53 L34,40 Z" id="path-2"></path>
        <rect id="path-3" x="5" y="28" width="30" height="13"></rect>
        <rect id="path-4" x="34" y="28" width="31" height="13"></rect>
        <path d="M5,18.0027601 C5,16.8966663 5.89784041,16 6.99161703,16 L35,16 L35,29 L5,29 L5,18.0027601 Z" id="path-5"></path>
        <path d="M34,16 L63.0017862,16 C64.1053692,16 65,16.8935426 65,18.0027601 L65,29 L34,29 L34,16 Z" id="path-6"></path>
    </defs>
    <g id="Page-1" stroke="none" stroke-width="1" fill="none" fill-rule="evenodd">
        <g id="-icon-table">
            <g id="Rectangle-2-Copy-2">
                <use fill="#FFFFFF" fill-rule="evenodd" xlink:href="#path-1"></use>
                <path stroke="#E2E2E2" stroke-width="1" d="M5.5,40.5 L34.5,40.5 L34.5,52.5 L6.99161703,52.5 C6.16725083,52.5 5.5,51.8297388 5.5,50.9972399 L5.5,40.5 Z"></path>
            </g>
            <g id="Rectangle-2-Copy">
                <use fill="#FFFFFF" fill-rule="evenodd" xlink:href="#path-2"></use>
                <use fill="#FFF8EB" fill-rule="evenodd" xlink:href="#path-2"></use>
                <path stroke="#EAC143" stroke-width="1" d="M34.5,40.5 L64.5,40.5 L64.5,50.9972399 C64.5,51.8275582 63.8291527,52.5 63.0017862,52.5 L34.5,52.5 L34.5,40.5 Z"></path>
            </g>
            <g id="Rectangle-2-Copy-2">
                <use fill="#FFFFFF" fill-rule="evenodd" xlink:href="#path-3"></use>
                <rect stroke="#E2E2E2" stroke-width="1" x="5.5" y="28.5" width="29" height="12"></rect>
            </g>
            <g id="Rectangle-2-Copy">
                <use fill="#FFFFFF" fill-rule="evenodd" xlink:href="#path-4"></use>
                <use fill="#FFF8EB" fill-rule="evenodd" xlink:href="#path-4"></use>
                <rect stroke="#EAC143" stroke-width="1" x="34.5" y="28.5" width="30" height="12"></rect>
            </g>
            <g id="Rectangle-2-Copy-2">
                <use fill="#FFFFFF" fill-rule="evenodd" xlink:href="#path-5"></use>
                <path stroke="#E2E2E2" stroke-width="1" d="M34.5,16.5 L34.5,28.5 L5.5,28.5 L5.5,18.0027601 C5.5,17.1745598 6.17224046,16.5 6.99161703,16.5 L34.5,16.5 Z"></path>
            </g>
            <g id="Rectangle-2-Copy">
                <use fill="#FFFFFF" fill-rule="evenodd" xlink:href="#path-6"></use>
                <use fill="#FFF8EB" fill-rule="evenodd" xlink:href="#path-6"></use>
                <path stroke="#EAC143" stroke-width="1" d="M34.5,16.5 L63.0017862,16.5 C63.8301705,16.5 64.5,17.1706302 64.5,18.0027601 L64.5,28.5 L34.5,28.5 L34.5,16.5 Z"></path>
            </g>
            <path d="M11.4785156,25 L10.5732422,25 L10.5732422,22.5214844 L10.5820312,22.1142578 L10.5966797,21.6689453 C10.4462883,21.8193367 10.3417972,21.9179685 10.2832031,21.9648438 L9.79101562,22.3603516 L9.35449219,21.8154297 L10.734375,20.7167969 L11.4785156,20.7167969 L11.4785156,25 Z" id="1" fill="#757474"></path>
            <path d="M12.234375,37 L9.24023438,37 L9.24023438,36.3701172 L10.3154297,35.2832031 C10.6337907,34.9570296 10.8417964,34.7309577 10.9394531,34.6049805 C11.0371099,34.4790033 11.1074217,34.3623052 11.1503906,34.2548828 C11.1933596,34.1474604 11.2148438,34.0361334 11.2148438,33.9208984 C11.2148438,33.7490226 11.1674809,33.6210942 11.0727539,33.5371094 C10.9780269,33.4531246 10.8515633,33.4111328 10.6933594,33.4111328 C10.5273429,33.4111328 10.3662117,33.4492184 10.2099609,33.5253906 C10.0537102,33.6015629 9.89062585,33.7099602 9.72070312,33.8505859 L9.22851562,33.2675781 C9.43945418,33.0878897 9.61425712,32.9609379 9.75292969,32.8867188 C9.89160226,32.8124996 10.0429679,32.7553713 10.2070312,32.715332 C10.3710946,32.6752928 10.5546865,32.6552734 10.7578125,32.6552734 C11.025392,32.6552734 11.2617177,32.7041011 11.4667969,32.8017578 C11.671876,32.8994146 11.8310541,33.0361319 11.9443359,33.2119141 C12.0576178,33.3876962 12.1142578,33.5888661 12.1142578,33.8154297 C12.1142578,34.0126963 12.0795902,34.197753 12.0102539,34.3706055 C11.9409176,34.5434579 11.8334968,34.7207022 11.6879883,34.9023438 C11.5424797,35.0839853 11.2861346,35.3427718 10.9189453,35.6787109 L10.3681641,36.1972656 L10.3681641,36.2382812 L12.234375,36.2382812 L12.234375,37 Z" id="2" fill="#757474"></path>
            <path d="M12.0673828,45.6748047 C12.0673828,45.9423842 11.9863289,46.1699209 11.8242188,46.3574219 C11.6621086,46.5449228 11.4345718,46.6738278 11.1416016,46.7441406 L11.1416016,46.7617188 C11.4873064,46.8046877 11.7490225,46.9096671 11.9267578,47.0766602 C12.1044931,47.2436532 12.1933594,47.4687486 12.1933594,47.7519531 C12.1933594,48.1640646 12.0439468,48.4848621 11.7451172,48.7143555 C11.4462876,48.9438488 11.019534,49.0585938 10.4648438,49.0585938 C9.99999768,49.0585938 9.58789242,48.9814461 9.22851562,48.8271484 L9.22851562,48.0566406 C9.39453208,48.1406254 9.57714744,48.2089841 9.77636719,48.2617188 C9.97558693,48.3144534 10.1728506,48.3408203 10.3681641,48.3408203 C10.6669937,48.3408203 10.8876946,48.2900396 11.0302734,48.1884766 C11.1728523,48.0869136 11.2441406,47.9238292 11.2441406,47.6992188 C11.2441406,47.4980459 11.1621102,47.3554692 10.9980469,47.2714844 C10.8339836,47.1874996 10.5722674,47.1455078 10.2128906,47.1455078 L9.88769531,47.1455078 L9.88769531,46.4511719 L10.21875,46.4511719 C10.5507829,46.4511719 10.7934563,46.4077153 10.9467773,46.3208008 C11.1000984,46.2338863 11.1767578,46.084962 11.1767578,45.8740234 C11.1767578,45.5498031 10.9736348,45.3876953 10.5673828,45.3876953 C10.4267571,45.3876953 10.2836921,45.4111326 10.1381836,45.4580078 C9.99267505,45.504883 9.83105558,45.5859369 9.65332031,45.7011719 L9.234375,45.0771484 C9.62500195,44.795897 10.0908176,44.6552734 10.6318359,44.6552734 C11.0751975,44.6552734 11.4252917,44.7451163 11.6821289,44.9248047 C11.9389661,45.1044931 12.0673828,45.3544906 12.0673828,45.6748047 Z" id="3" fill="#757474"></path>
            <rect id="bounding-box" x="0" y="0" width="70" height="70"></rect>
        </g>
    </g>
</svg>